<svg width="1584" height="396" viewBox="0 0 1584 396" fill="none" xmlns="http://www.w3.org/2000/svg">
<rect width="1584" height="396" fill="#F5F5F5"/>
<g id="Awesome banner" clip-path="url(#clip0_0_1)">
<rect width="1584" height="396" fill="url(#paint0_linear_0_1)"/>
<ellipse id="Ellipse 2" cx="323" cy="64" rx="285" ry="288" fill="url(#paint1_linear_0_1)" fill-opacity="0.1"/>
<g id="copyright">
<path d="M75.95 334.52L72.30 334.52L72.30 311.16L77.20 311.16L83.70 330.04Q83.60 329.02 83.50 327.62Q83.41 326.23 83.33 324.79Q83.25 323.35 83.25 322.23L83.25 311.16L86.90 311.16L86.90 334.52L82 334.52L75.57 315.64Q75.63 316.57 75.73 317.88Q75.82 319.19 75.89 320.57Q75.95 321.94 75.95 323.10L75.95 334.52M98.80 334.84Q96.46 334.84 94.67 333.96Q92.88 333.08 91.89 331.53Q90.90 329.98 90.90 327.93Q90.90 325.78 92.13 324.18Q93.36 322.58 95.34 322.17L95.34 322.10Q93.65 321.75 92.61 320.38Q91.57 319 91.57 317.11Q91.57 315.26 92.48 313.85Q93.39 312.44 95.02 311.64Q96.66 310.84 98.80 310.84Q100.94 310.84 102.59 311.64Q104.24 312.44 105.15 313.85Q106.06 315.26 106.06 317.11Q106.06 319 105.01 320.38Q103.95 321.75 102.26 322.10L102.26 322.17Q104.24 322.58 105.47 324.18Q106.70 325.78 106.70 327.93Q106.70 329.98 105.71 331.53Q104.72 333.08 102.93 333.96Q101.14 334.84 98.80 334.84M98.80 320.73Q100.30 320.73 101.23 319.82Q102.16 318.90 102.16 317.46Q102.16 315.99 101.23 315.08Q100.30 314.17 98.80 314.17Q97.30 314.17 96.37 315.08Q95.44 315.99 95.44 317.46Q95.44 318.90 96.37 319.82Q97.30 320.73 98.80 320.73M98.80 331.45Q100.56 331.45 101.68 330.42Q102.80 329.40 102.80 327.74Q102.80 326.04 101.68 325Q100.56 323.96 98.80 323.96Q97.04 323.96 95.92 325Q94.80 326.04 94.80 327.74Q94.80 329.40 95.92 330.42Q97.04 331.45 98.80 331.45M114.35 334.52L110.70 334.52L110.70 311.16L115.60 311.16L122.10 330.04Q122 329.02 121.90 327.62Q121.81 326.23 121.73 324.79Q121.65 323.35 121.65 322.23L121.65 311.16L125.30 311.16L125.30 334.52L120.40 334.52L113.97 315.64Q114.03 316.57 114.13 317.88Q114.22 319.19 114.29 320.57Q114.35 321.94 114.35 323.10" fill="white" fill-opacity="0.9"/>
<path d="M161.48 325.24L151.24 325.24L151.24 322.68L161.48 322.68" fill="white" fill-opacity="0.9"/>
<path d="M195.02 334.84Q191.82 334.84 189.96 333.05Q188.11 331.26 188.11 328.12L188.11 317.56Q188.11 314.42 189.96 312.63Q191.82 310.84 195.02 310.84Q198.15 310.84 200.01 312.65Q201.87 314.46 201.87 317.56L198.99 317.56Q198.99 315.58 197.95 314.50Q196.91 313.43 195.02 313.43Q193.13 313.43 192.06 314.50Q190.99 315.58 190.99 317.56L190.99 328.12Q190.99 330.10 192.06 331.18Q193.13 332.25 195.02 332.25Q196.91 332.25 197.95 331.18Q198.99 330.10 198.99 328.12L201.87 328.12Q201.87 331.22 200.01 333.03Q198.15 334.84 195.02 334.84" fill="white" fill-opacity="0.9"/>
<path d="M213.96 334.84Q210.83 334.84 209 333.02Q207.18 331.19 207.18 327.80L207.18 317.88Q207.18 314.49 209 312.66Q210.83 310.84 213.96 310.84Q217.10 310.84 218.92 312.66Q220.75 314.49 220.75 317.85L220.75 327.80Q220.75 331.19 218.92 333.02Q217.10 334.84 213.96 334.84M213.96 332.25Q215.85 332.25 216.86 331.18Q217.87 330.10 217.87 328.12L217.87 317.56Q217.87 315.58 216.86 314.50Q215.85 313.43 213.96 313.43Q212.11 313.43 211.08 314.50Q210.06 315.58 210.06 317.56L210.06 328.12Q210.06 330.10 211.08 331.18Q212.11 332.25 213.96 332.25" fill="white" fill-opacity="0.9"/>
<path d="M228.65 334.52L225.87 334.52L225.87 311.16L230.12 311.16L233.10 321.27L236.20 311.16L240.46 311.16L240.46 334.52L237.67 334.52L237.67 323.48Q237.67 321.91 237.72 319.88Q237.77 317.85 237.87 315.77Q237.96 313.69 238.09 312.02L234.31 324.09L231.82 324.09L228.20 312.31Q228.46 314.68 228.55 317.50Q228.65 320.31 228.65 323.48" fill="white" fill-opacity="0.9"/>
<path d="M247.85 334.52L245.07 334.52L245.07 311.16L249.32 311.16L252.30 321.27L255.40 311.16L259.66 311.16L259.66 334.52L256.87 334.52L256.87 323.48Q256.87 321.91 256.92 319.88Q256.97 317.85 257.07 315.77Q257.16 313.69 257.29 312.02L253.51 324.09L251.02 324.09L247.40 312.31Q247.66 314.68 247.75 317.50Q247.85 320.31 247.85 323.48" fill="white" fill-opacity="0.9"/>
<path d="M271.56 334.84Q268.30 334.84 266.57 333.03Q264.84 331.22 264.84 328.12L264.84 311.16L267.72 311.16L267.72 328.12Q267.72 330.04 268.67 331.16Q269.61 332.28 271.56 332.28Q273.48 332.28 274.44 331.16Q275.40 330.04 275.40 328.12L275.40 311.16L278.28 311.16L278.28 328.12Q278.28 331.26 276.57 333.05Q274.86 334.84 271.56 334.84" fill="white" fill-opacity="0.9"/>
<path d="M286.83 334.52L284.04 334.52L284.04 311.16L287.88 311.16L295.02 331.16Q294.95 330.36 294.87 329.19Q294.79 328.02 294.75 326.73Q294.70 325.43 294.70 324.28L294.70 311.16L297.48 311.16L297.48 334.52L293.64 334.52L286.54 314.52Q286.60 315.29 286.67 316.46Q286.73 317.62 286.78 318.92Q286.83 320.22 286.83 321.40" fill="white" fill-opacity="0.9"/>
<path d="M316.20 334.52L303.72 334.52L303.72 331.90L308.49 331.90L308.49 313.78L303.72 313.78L303.72 311.16L316.20 311.16L316.20 313.78L311.43 313.78L311.43 331.90L316.20 331.90" fill="white" fill-opacity="0.9"/>
<path d="M330.60 334.52L327.72 334.52L327.72 313.78L321.32 313.78L321.32 311.16L337 311.16L337 313.78L330.60 313.78" fill="white" fill-opacity="0.9"/>
<path d="M349.80 334.52L346.92 334.52L346.92 325.78L339.88 311.16L342.95 311.16L347.50 320.76Q347.88 321.56 348.11 322.12Q348.33 322.68 348.39 322.94Q348.46 322.68 348.70 322.12Q348.94 321.56 349.32 320.76L353.87 311.16L356.84 311.16L349.80 325.78" fill="white" fill-opacity="0.9"/>
<path d="M382.83 334.52L380.04 334.52L380.04 311.16L383.88 311.16L391.02 331.16Q390.95 330.36 390.87 329.19Q390.79 328.02 390.75 326.73Q390.70 325.43 390.70 324.28L390.70 311.16L393.48 311.16L393.48 334.52L389.64 334.52L382.54 314.52Q382.60 315.29 382.67 316.46Q382.73 317.62 382.78 318.92Q382.83 320.22 382.83 321.40" fill="white" fill-opacity="0.9"/>
<path d="M405.96 334.84Q402.83 334.84 401 333.02Q399.18 331.19 399.18 327.80L399.18 317.88Q399.18 314.49 401 312.66Q402.83 310.84 405.96 310.84Q409.10 310.84 410.92 312.66Q412.75 314.49 412.75 317.85L412.75 327.80Q412.75 331.19 410.92 333.02Q409.10 334.84 405.96 334.84M405.96 332.25Q407.85 332.25 408.86 331.18Q409.87 330.10 409.87 328.12L409.87 317.56Q409.87 315.58 408.86 314.50Q407.85 313.43 405.96 313.43Q404.11 313.43 403.08 314.50Q402.06 315.58 402.06 317.56L402.06 328.12Q402.06 330.10 403.08 331.18Q404.11 332.25 405.96 332.25" fill="white" fill-opacity="0.9"/>
<path d="M424.55 334.52L418.51 334.52L418.51 311.16L424.55 311.16Q426.83 311.16 428.47 312.02Q430.12 312.89 431.03 314.46Q431.95 316.02 431.95 318.17L431.95 327.48Q431.95 329.62 431.03 331.21Q430.12 332.79 428.47 333.66Q426.83 334.52 424.55 334.52M421.39 313.72L421.39 331.96L424.55 331.96Q426.67 331.96 427.87 330.78Q429.07 329.59 429.07 327.48L429.07 318.17Q429.07 316.09 427.87 314.90Q426.67 313.72 424.55 313.72" fill="white" fill-opacity="0.9"/>
<path d="M451.40 334.52L437.96 334.52L437.96 311.16L451.40 311.16L451.40 313.78L440.81 313.78L440.81 321.02L450.28 321.02L450.28 323.58L440.81 323.58L440.81 331.90L451.40 331.90" fill="white" fill-opacity="0.9"/>
<path d="M463.69 334.84Q460.30 334.84 458.28 333.05Q456.27 331.26 456.27 328.12L459.15 328.12Q459.15 330.07 460.39 331.18Q461.64 332.28 463.69 332.28Q465.67 332.28 466.86 331.13Q468.04 329.98 468.04 328.12Q468.04 326.71 467.29 325.67Q466.54 324.63 465.13 324.25L461.58 323.26Q459.37 322.62 458.11 320.97Q456.84 319.32 456.84 317.08Q456.84 315.22 457.67 313.82Q458.51 312.41 460.01 311.62Q461.51 310.84 463.47 310.84Q465.45 310.84 466.97 311.62Q468.49 312.41 469.35 313.80Q470.22 315.19 470.22 317.02L467.34 317.02Q467.34 315.42 466.25 314.41Q465.16 313.40 463.47 313.40Q461.77 313.40 460.71 314.41Q459.66 315.42 459.66 317.02Q459.66 318.30 460.35 319.21Q461.03 320.12 462.28 320.47L465.93 321.50Q468.27 322.14 469.56 323.91Q470.86 325.69 470.86 328.12Q470.86 331.19 468.91 333.02Q466.95 334.84 463.69 334.84" fill="white" fill-opacity="0.9"/>
</g>
<path d="M82.48 197.64L72.40 197.64L72.40 180.12L82.48 180.12L82.48 182.09L74.54 182.09L74.54 187.51L81.64 187.51L81.64 189.43L74.54 189.43L74.54 195.67L82.48 195.67" fill="white" fill-opacity="0.7"/>
<path d="M88.14 197.64L85.60 197.64L90.28 190.85L85.89 184.44L88.43 184.44L91.05 188.52Q91.22 188.78 91.37 189.10Q91.53 189.41 91.62 189.60Q91.70 189.41 91.85 189.10Q92.01 188.78 92.18 188.52L94.79 184.44L97.34 184.44L92.94 190.87L97.60 197.64L95.06 197.64L92.22 193.32Q92.06 193.06 91.90 192.71Q91.74 192.36 91.62 192.14Q91.53 192.36 91.35 192.71Q91.17 193.06 90.98 193.32" fill="white" fill-opacity="0.7"/>
<path d="M111.16 197.64L107.32 197.64Q105.69 197.64 104.70 196.69Q103.72 195.74 103.72 194.16L103.72 186.41L99.93 186.41L99.93 184.44L103.72 184.44L103.72 180.72L105.88 180.72L105.88 184.44L111.28 184.44L111.28 186.41L105.88 186.41L105.88 194.16Q105.88 194.83 106.28 195.25Q106.67 195.67 107.32 195.67L111.16 195.67" fill="white" fill-opacity="0.7"/>
<path d="M117.57 201.96L115.41 201.96L115.41 184.44L117.57 184.44L117.57 186.96L117.59 186.96Q117.76 185.66 118.72 184.93Q119.68 184.20 121.17 184.20Q123.16 184.20 124.34 185.51Q125.51 186.82 125.51 189.10L125.51 192.96Q125.51 195.24 124.34 196.56Q123.16 197.88 121.17 197.88Q119.68 197.88 118.72 197.14Q117.76 196.39 117.59 195.12L117.52 195.12L117.57 198.12L117.57 201.96M120.45 196.01Q121.82 196.01 122.58 195.29Q123.35 194.57 123.35 192.96L123.35 189.12Q123.35 187.49 122.58 186.78Q121.82 186.07 120.45 186.07Q119.13 186.07 118.35 186.91Q117.57 187.75 117.57 189.24L117.57 192.84Q117.57 194.33 118.35 195.17Q119.13 196.01 120.45 196.01" fill="white" fill-opacity="0.7"/>
<path d="M134.80 197.83Q132.42 197.83 131.02 196.44Q129.62 195.05 129.62 192.55L129.62 189.53Q129.62 187.01 131.01 185.63Q132.40 184.25 134.80 184.25Q137.20 184.25 138.59 185.63Q139.98 187.01 139.98 189.53L139.98 192.55Q139.98 195.05 138.58 196.44Q137.18 197.83 134.80 197.83M134.80 195.91Q136.22 195.91 137.02 195.12Q137.82 194.33 137.82 192.79L137.82 189.29Q137.82 187.75 137.02 186.96Q136.22 186.17 134.80 186.17Q133.41 186.17 132.59 186.96Q131.78 187.75 131.78 189.29L131.78 192.79Q131.78 194.33 132.59 195.12Q133.41 195.91 134.80 195.91" fill="white" fill-opacity="0.7"/>
<path d="M149.73 197.83L148.67 197.83Q146.46 197.83 145.25 196.84Q144.04 195.84 144.04 194.02L146.20 194.02Q146.20 194.93 146.85 195.44Q147.50 195.96 148.67 195.96L149.73 195.96Q150.93 195.96 151.59 195.43Q152.25 194.90 152.25 193.94Q152.25 192.24 150.69 192.02L147.04 191.50Q145.70 191.30 144.95 190.38Q144.21 189.46 144.21 187.94Q144.21 186.22 145.40 185.23Q146.58 184.25 148.67 184.25L149.73 184.25Q151.65 184.25 152.86 185.20Q154.07 186.14 154.17 187.68L151.98 187.68Q151.94 186.98 151.32 186.53Q150.71 186.07 149.73 186.07L148.67 186.07Q147.57 186.07 146.94 186.58Q146.32 187.08 146.32 187.94Q146.32 189.34 147.59 189.53LNaN 190.01Q154.36 190.49 154.36 193.94Q154.36 195.79 153.15 196.81Q151.94 197.83 149.73 197.83" fill="white" fill-opacity="0.7"/>
<path d="M163.60 197.88Q161.27 197.88 159.84 196.48Q158.42 195.07 158.42 192.60L158.42 189.48Q158.42 187.01 159.84 185.60Q161.27 184.20 163.60 184.20Q165.16 184.20 166.32 184.82Q167.49 185.45 168.14 186.58Q168.78 187.70 168.78 189.24L168.78 191.59L160.53 191.59L160.53 192.84Q160.53 194.30 161.37 195.16Q162.21 196.01 163.60 196.01Q164.80 196.01 165.58 195.54Q166.36 195.07 166.53 194.28L168.69 194.28Q168.47 195.94 167.08 196.91Q165.69 197.88 163.60 197.88M160.53 189.24L160.53 189.91L166.67 189.91L166.67 189.24Q166.67 187.68 165.87 186.83Q165.06 185.98 163.60 185.98Q162.14 185.98 161.33 186.83Q160.53 187.68 160.53 189.24" fill="white" fill-opacity="0.7"/>
<path d="MNaN 187.75Q177.02 187.75 176.51 187.27Q176.01 186.79 176.01 185.98Q176.01 185.16 176.51 184.68Q177.02 184.20 NaN 184.20Q178.98 184.20 179.49 184.68Q179.99 185.16 179.99 185.98Q179.99 186.79 179.49 187.27Q178.98 187.75 NaN 187.75MNaN 197.88Q177.02 197.88 176.51 197.40Q176.01 196.92 176.01 196.10Q176.01 195.29 176.51 194.81Q177.02 194.33 NaN 194.33Q178.98 194.33 179.49 194.81Q179.99 195.29 179.99 196.10Q179.99 196.92 179.49 197.40Q178.98 197.88 NaN 197.88" fill="white" fill-opacity="0.7"/>
<path d="M206.99 197.88Q204.59 197.88 203.20 196.54Q201.81 195.19 201.81 192.84L201.81 184.92Q201.81 182.57 203.20 181.22Q204.59 179.88 206.99 179.88Q209.34 179.88 210.74 181.24Q212.13 182.59 212.13 184.92L209.97 184.92Q209.97 183.43 209.19 182.63Q208.41 181.82 206.99 181.82Q205.58 181.82 204.77 182.63Q203.97 183.43 203.97 184.92L203.97 192.84Q203.97 194.33 204.77 195.13Q205.58 195.94 206.99 195.94Q208.41 195.94 209.19 195.13Q209.97 194.33 209.97 192.84L212.13 192.84Q212.13 195.17 210.74 196.52Q209.34 197.88 206.99 197.88" fill="white" fill-opacity="0.7"/>
<path d="M218.37 197.64L216.21 197.64L216.21 180.12L218.37 180.12L218.37 186.96L218.39 186.96Q218.56 185.64 219.47 184.92Q220.38 184.20 221.90 184.20Q223.89 184.20 225.06 185.42Q226.24 186.65 226.24 188.76L226.24 197.64L224.08 197.64L224.08 189.12Q224.08 187.63 223.32 186.83Q222.57 186.02 221.27 186.02Q219.93 186.02 219.15 186.86Q218.37 187.70 218.37 189.24" fill="white" fill-opacity="0.7"/>
<path d="M233.25 197.64L231.09 197.64L231.09 184.44L233.25 184.44L233.25 186.96L233.30 186.96Q233.46 185.69 234.38 184.94Q235.29 184.20 236.82 184.20Q238.89 184.20 240 185.44Q241.12 186.67 241.12 188.95L241.12 190.08L238.96 190.08L238.96 188.95Q238.96 186.07 236.15 186.07Q234.74 186.07 233.99 186.89Q233.25 187.70 233.25 189.24" fill="white" fill-opacity="0.7"/>
<path d="MNaN 197.83Q247.62 197.83 246.22 196.44Q244.82 195.05 244.82 192.55L244.82 189.53Q244.82 187.01 246.21 185.63Q247.60 184.25 NaN 184.25Q252.40 184.25 253.79 185.63Q255.18 187.01 255.18 189.53L255.18 192.55Q255.18 195.05 253.78 196.44Q252.38 197.83 NaN 197.83MNaN 195.91Q251.42 195.91 252.22 195.12Q253.02 194.33 253.02 192.79L253.02 189.29Q253.02 187.75 252.22 186.96Q251.42 186.17 NaN 186.17Q248.61 186.17 247.79 186.96Q246.98 187.75 246.98 189.29L246.98 192.79Q246.98 194.33 247.79 195.12Q248.61 195.91 NaN 195.91" fill="white" fill-opacity="0.7"/>
<path d="M260.66 197.64L258.64 197.64L258.64 184.44L260.51 184.44L260.51 186.19L260.56 186.19Q260.68 185.30 261.27 184.75Q261.86 184.20 262.77 184.20Q263.63 184.20 264.23 184.70Q264.83 185.21 265.10 186.07L265.12 186.07Q265.29 185.21 265.88 184.70Q266.46 184.20 267.38 184.20Q268.65 184.20 269.40 185.15Q270.16 186.10 270.16 187.61L270.16 197.64L268.14 197.64L268.14 187.58Q268.14 186.79 267.76 186.32Q267.38 185.86 266.70 185.86Q266.06 185.86 265.67 186.31Q265.29 186.77 265.29 187.56L265.29 197.64L263.51 197.64L263.51 187.58Q263.51 186.79 263.13 186.32Q262.74 185.86 262.10 185.86Q261.42 185.86 261.04 186.31Q260.66 186.77 260.66 187.56" fill="white" fill-opacity="0.7"/>
<path d="M278.80 197.88Q276.47 197.88 275.04 196.48Q273.62 195.07 273.62 192.60L273.62 189.48Q273.62 187.01 275.04 185.60Q276.47 184.20 278.80 184.20Q280.36 184.20 281.52 184.82Q282.69 185.45 283.34 186.58Q283.98 187.70 283.98 189.24L283.98 191.59L275.73 191.59L275.73 192.84Q275.73 194.30 276.57 195.16Q277.41 196.01 278.80 196.01Q280 196.01 280.78 195.54Q281.56 195.07 281.73 194.28L283.89 194.28Q283.67 195.94 282.28 196.91Q280.89 197.88 278.80 197.88M275.73 189.24L275.73 189.91L281.87 189.91L281.87 189.24Q281.87 187.68 281.07 186.83Q280.26 185.98 278.80 185.98Q277.34 185.98 276.53 186.83Q275.73 187.68 275.73 189.24" fill="white" fill-opacity="0.7"/>
<path d="M307.60 197.88Q305.27 197.88 303.84 196.48Q302.42 195.07 302.42 192.60L302.42 189.48Q302.42 187.01 303.84 185.60Q305.27 184.20 307.60 184.20Q309.16 184.20 310.32 184.82Q311.49 185.45 312.14 186.58Q312.78 187.70 312.78 189.24L312.78 191.59L304.53 191.59L304.53 192.84Q304.53 194.30 305.37 195.16Q306.21 196.01 307.60 196.01Q308.80 196.01 309.58 195.54Q310.36 195.07 310.53 194.28L312.69 194.28Q312.47 195.94 311.08 196.91Q309.69 197.88 307.60 197.88M304.53 189.24L304.53 189.91L310.67 189.91L310.67 189.24Q310.67 187.68 309.87 186.83Q309.06 185.98 307.60 185.98Q306.14 185.98 305.33 186.83Q304.53 187.68 304.53 189.24" fill="white" fill-opacity="0.7"/>
<path d="M318.54 197.64L316 197.64L320.68 190.85L316.29 184.44L318.83 184.44L321.45 188.52Q321.62 188.78 321.77 189.10Q321.93 189.41 322.02 189.60Q322.10 189.41 322.25 189.10Q322.41 188.78 322.58 188.52L325.19 184.44L327.74 184.44L323.34 190.87L328 197.64L325.46 197.64L322.62 193.32Q322.46 193.06 322.30 192.71Q322.14 192.36 322.02 192.14Q321.93 192.36 321.75 192.71Q321.57 193.06 321.38 193.32" fill="white" fill-opacity="0.7"/>
<path d="M341.56 197.64L337.72 197.64Q336.09 197.64 335.10 196.69Q334.12 195.74 334.12 194.16L334.12 186.41L330.33 186.41L330.33 184.44L334.12 184.44L334.12 180.72L336.28 180.72L336.28 184.44L341.68 184.44L341.68 186.41L336.28 186.41L336.28 194.16Q336.28 194.83 336.68 195.25Q337.07 195.67 337.72 195.67L341.56 195.67" fill="white" fill-opacity="0.7"/>
<path d="M350.80 197.88Q348.47 197.88 347.04 196.48Q345.62 195.07 345.62 192.60L345.62 189.48Q345.62 187.01 347.04 185.60Q348.47 184.20 350.80 184.20Q352.36 184.20 353.52 184.82Q354.69 185.45 355.34 186.58Q355.98 187.70 355.98 189.24L355.98 191.59L347.73 191.59L347.73 192.84Q347.73 194.30 348.57 195.16Q349.41 196.01 350.80 196.01Q352 196.01 352.78 195.54Q353.56 195.07 353.73 194.28L355.89 194.28Q355.67 195.94 354.28 196.91Q352.89 197.88 350.80 197.88M347.73 189.24L347.73 189.91L353.87 189.91L353.87 189.24Q353.87 187.68 353.07 186.83Q352.26 185.98 350.80 185.98Q349.34 185.98 348.53 186.83Q347.73 187.68 347.73 189.24" fill="white" fill-opacity="0.7"/>
<path d="M362.37 197.64L360.21 197.64L360.21 184.44L362.37 184.44L362.37 186.96L362.39 186.96Q362.56 185.64 363.47 184.92Q364.38 184.20 365.90 184.20Q367.89 184.20 369.06 185.42Q370.24 186.65 370.24 188.76L370.24 197.64L368.08 197.64L368.08 189.14Q368.08 187.63 367.32 186.83Q366.57 186.02 365.27 186.02Q363.93 186.02 363.15 186.86Q362.37 187.70 362.37 189.24" fill="white" fill-opacity="0.7"/>
<path d="M380.13 197.83L379.07 197.83Q376.86 197.83 375.65 196.84Q374.44 195.84 374.44 194.02L376.60 194.02Q376.60 194.93 377.25 195.44Q377.90 195.96 379.07 195.96L380.13 195.96Q381.33 195.96 381.99 195.43Q382.65 194.90 382.65 193.94Q382.65 192.24 381.09 192.02L377.44 191.50Q376.10 191.30 375.35 190.38Q374.61 189.46 374.61 187.94Q374.61 186.22 375.80 185.23Q376.98 184.25 379.07 184.25L380.13 184.25Q382.05 184.25 383.26 185.20Q384.47 186.14 384.57 187.68L382.38 187.68Q382.34 186.98 381.72 186.53Q381.11 186.07 380.13 186.07L379.07 186.07Q377.97 186.07 377.34 186.58Q376.72 187.08 376.72 187.94Q376.72 189.34 377.99 189.53L381.40 190.01Q384.76 190.49 384.76 193.94Q384.76 195.79 383.55 196.81Q382.34 197.83 380.13 197.83" fill="white" fill-opacity="0.7"/>
<path d="M400.12 197.64L388.84 197.64L388.84 195.67L393.52 195.67L393.52 186.41L389.32 186.41L389.32 184.44L395.68 184.44L395.68 195.67L400.12 195.67L400.12 197.64M394.36 182.06Q393.57 182.06 393.11 181.66Q392.66 181.25 392.66 180.55Q392.66 179.83 393.11 179.41Q393.57 178.99 394.36 178.99Q395.15 178.99 395.61 179.41Q396.06 179.83 396.06 180.55Q396.06 181.25 395.61 181.66Q395.15 182.06 394.36 182.06" fill="white" fill-opacity="0.7"/>
<path d="M408.40 197.83Q406.02 197.83 404.62 196.44Q403.22 195.05 403.22 192.55L403.22 189.53Q403.22 187.01 404.61 185.63Q406 184.25 408.40 184.25Q410.80 184.25 412.19 185.63Q413.58 187.01 413.58 189.53L413.58 192.55Q413.58 195.05 412.18 196.44Q410.78 197.83 408.40 197.83M408.40 195.91Q409.82 195.91 410.62 195.12Q411.42 194.33 411.42 192.79L411.42 189.29Q411.42 187.75 410.62 186.96Q409.82 186.17 408.40 186.17Q407.01 186.17 406.19 186.96Q405.38 187.75 405.38 189.29L405.38 192.79Q405.38 194.33 406.19 195.12Q407.01 195.91 408.40 195.91" fill="white" fill-opacity="0.7"/>
<path d="M419.97 197.64L417.81 197.64L417.81 184.44L419.97 184.44L419.97 186.96L419.99 186.96Q420.16 185.64 421.07 184.92Q421.98 184.20 423.50 184.20Q425.49 184.20 426.66 185.42Q427.84 186.65 427.84 188.76L427.84 197.64L425.68 197.64L425.68 189.14Q425.68 187.63 424.92 186.83Q424.17 186.02 422.87 186.02Q421.53 186.02 420.75 186.86Q419.97 187.70 419.97 189.24" fill="white" fill-opacity="0.7"/>
<path d="M457.72 197.64L446.44 197.64L446.44 195.67L451.12 195.67L451.12 186.41L446.92 186.41L446.92 184.44L453.28 184.44L453.28 195.67L457.72 195.67L457.72 197.64M451.96 182.06Q451.17 182.06 450.71 181.66Q450.26 181.25 450.26 180.55Q450.26 179.83 450.71 179.41Q451.17 178.99 451.96 178.99Q452.75 178.99 453.21 179.41Q453.66 179.83 453.66 180.55Q453.66 181.25 453.21 181.66Q452.75 182.06 451.96 182.06" fill="white" fill-opacity="0.7"/>
<path d="M463.17 197.64L461.01 197.64L461.01 184.44L463.17 184.44L463.17 186.96L463.19 186.96Q463.36 185.64 464.27 184.92Q465.18 184.20 466.70 184.20Q468.69 184.20 469.86 185.42Q471.04 186.65 471.04 188.76L471.04 197.64L468.88 197.64L468.88 189.14Q468.88 187.63 468.12 186.83Q467.37 186.02 466.07 186.02Q464.73 186.02 463.95 186.86Q463.17 187.70 463.17 189.24" fill="white" fill-opacity="0.7"/>
<path d="M484.24 190.68L476.56 190.68L476.56 188.76L484.24 188.76" fill="white" fill-opacity="0.7"/>
<path d="M495.33 197.83L494.27 197.83Q492.06 197.83 490.85 196.84Q489.64 195.84 489.64 194.02L491.80 194.02Q491.80 194.93 492.45 195.44Q493.10 195.96 494.27 195.96L495.33 195.96Q496.53 195.96 497.19 195.43Q497.85 194.90 497.85 193.94Q497.85 192.24 496.29 192.02L492.64 191.50Q491.30 191.30 490.55 190.38Q489.81 189.46 489.81 187.94Q489.81 186.22 491 185.23Q492.18 184.25 494.27 184.25L495.33 184.25Q497.25 184.25 498.46 185.20Q499.67 186.14 499.77 187.68L497.58 187.68Q497.54 186.98 496.92 186.53Q496.31 186.07 495.33 186.07L494.27 186.07Q493.17 186.07 492.54 186.58Q491.92 187.08 491.92 187.94Q491.92 189.34 493.19 189.53L496.60 190.01Q499.96 190.49 499.96 193.94Q499.96 195.79 498.75 196.81Q497.54 197.83 495.33 197.83" fill="white" fill-opacity="0.7"/>
<path d="M514.36 197.64L510.52 197.64Q508.89 197.64 507.90 196.69Q506.92 195.74 506.92 194.16L506.92 186.41L503.13 186.41L503.13 184.44L506.92 184.44L506.92 180.72L509.08 180.72L509.08 184.44L514.48 184.44L514.48 186.41L509.08 186.41L509.08 194.16Q509.08 194.83 509.48 195.25Q509.87 195.67 510.52 195.67L514.36 195.67" fill="white" fill-opacity="0.7"/>
<path d="M523.60 197.83Q521.22 197.83 519.82 196.44Q518.42 195.05 518.42 192.55L518.42 189.53Q518.42 187.01 519.81 185.63Q521.20 184.25 523.60 184.25Q526 184.25 527.39 185.63Q528.78 187.01 528.78 189.53L528.78 192.55Q528.78 195.05 527.38 196.44Q525.98 197.83 523.60 197.83M523.60 195.91Q525.02 195.91 525.82 195.12Q526.62 194.33 526.62 192.79L526.62 189.29Q526.62 187.75 525.82 186.96Q525.02 186.17 523.60 186.17Q522.21 186.17 521.39 186.96Q520.58 187.75 520.58 189.29L520.58 192.79Q520.58 194.33 521.39 195.12Q522.21 195.91 523.60 195.91" fill="white" fill-opacity="0.7"/>
<path d="M535.65 197.64L533.49 197.64L533.49 184.44L535.65 184.44L535.65 186.96L535.70 186.96Q535.86 185.69 536.78 184.94Q537.69 184.20 539.22 184.20Q541.29 184.20 542.40 185.44Q543.52 186.67 543.52 188.95L543.52 190.08L541.36 190.08L541.36 188.95Q541.36 186.07 538.55 186.07Q537.14 186.07 536.39 186.89Q535.65 187.70 535.65 189.24" fill="white" fill-opacity="0.7"/>
<path d="M552.40 197.88Q550.07 197.88 548.64 196.48Q547.22 195.07 547.22 192.60L547.22 189.48Q547.22 187.01 548.64 185.60Q550.07 184.20 552.40 184.20Q553.96 184.20 555.12 184.82Q556.29 185.45 556.94 186.58Q557.58 187.70 557.58 189.24L557.58 191.59L549.33 191.59L549.33 192.84Q549.33 194.30 550.17 195.16Q551.01 196.01 552.40 196.01Q553.60 196.01 554.38 195.54Q555.16 195.07 555.33 194.28L557.49 194.28Q557.27 195.94 555.88 196.91Q554.49 197.88 552.40 197.88M549.33 189.24L549.33 189.91L555.47 189.91L555.47 189.24Q555.47 187.68 554.67 186.83Q553.86 185.98 552.40 185.98Q550.94 185.98 550.13 186.83Q549.33 187.68 549.33 189.24" fill="white" fill-opacity="0.7"/>
<path d="M580.05 197.88Q578.01 197.88 576.81 196.74Q575.61 195.60 575.61 193.75Q575.61 192.53 576.16 191.62Q576.71 190.70 577.70 190.19Q578.68 189.67 579.95 189.67L584.03 189.67L584.03 188.64Q584.03 186.07 581.22 186.07Q579.98 186.07 579.21 186.53Q578.44 186.98 578.39 187.80L576.23 187.80Q576.35 186.24 577.68 185.22Q579.02 184.20 581.22 184.20Q583.62 184.20 584.91 185.35Q586.19 186.50 586.19 188.57L586.19 197.64L584.06 197.64L584.06 195.24L584.01 195.24Q583.82 196.46 582.78 197.17Q581.75 197.88 580.05 197.88M580.58 196.06Q582.16 196.06 583.10 195.29Q584.03 194.52 584.03 193.20L584.03 191.35L580.19 191.35Q579.14 191.35 578.48 191.99Q577.82 192.62 577.82 193.68Q577.82 194.78 578.55 195.42Q579.28 196.06 580.58 196.06" fill="white" fill-opacity="0.7"/>
<path d="M592.77 197.64L590.61 197.64L590.61 184.44L592.77 184.44L592.77 186.96L592.79 186.96Q592.96 185.64 593.87 184.92Q594.78 184.20 596.30 184.20Q598.29 184.20 599.46 185.42Q600.64 186.65 600.64 188.76L600.64 197.64L598.48 197.64L598.48 189.14Q598.48 187.63 597.72 186.83Q596.97 186.02 595.67 186.02Q594.33 186.02 593.55 186.86Q592.77 187.70 592.77 189.24" fill="white" fill-opacity="0.7"/>
<path d="M608.85 197.88Q606.81 197.88 605.61 196.74Q604.41 195.60 604.41 193.75Q604.41 192.53 604.96 191.62Q605.51 190.70 606.50 190.19Q607.48 189.67 608.75 189.67L612.83 189.67L612.83 188.64Q612.83 186.07 610.02 186.07Q608.78 186.07 608.01 186.53Q607.24 186.98 607.19 187.80L605.03 187.80Q605.15 186.24 606.48 185.22Q607.82 184.20 610.02 184.20Q612.42 184.20 613.71 185.35Q614.99 186.50 614.99 188.57L614.99 197.64L612.86 197.64L612.86 195.24L612.81 195.24Q612.62 196.46 611.58 197.17Q610.55 197.88 608.85 197.88M609.38 196.06Q610.96 196.06 611.90 195.29Q612.83 194.52 612.83 193.20L612.83 191.35L608.99 191.35Q607.94 191.35 607.28 191.99Q606.62 192.62 606.62 193.68Q606.62 194.78 607.35 195.42Q608.08 196.06 609.38 196.06" fill="white" fill-opacity="0.7"/>
<path d="M630.40 197.64L626.32 197.64Q624.57 197.64 623.52 196.62Q622.48 195.60 622.48 193.92L622.48 182.09L617.92 182.09L617.92 180.12L624.64 180.12L624.64 193.92Q624.64 194.74 625.10 195.20Q625.55 195.67 626.32 195.67L630.40 195.67" fill="white" fill-opacity="0.7"/>
<path d="M638.13 201.96L635.87 201.96L637.82 196.82L632.90 184.44L635.22 184.44L638.34 192.60Q638.54 193.08 638.70 193.61Q638.87 194.14 638.94 194.52Q639.02 194.14 639.18 193.61Q639.35 193.08 639.52 192.60L642.42 184.44L644.70 184.44" fill="white" fill-opacity="0.7"/>
<path d="M658.36 197.64L654.52 197.64Q652.89 197.64 651.90 196.69Q650.92 195.74 650.92 194.16L650.92 186.41L647.13 186.41L647.13 184.44L650.92 184.44L650.92 180.72L653.08 180.72L653.08 184.44L658.48 184.44L658.48 186.41L653.08 186.41L653.08 194.16Q653.08 194.83 653.48 195.25Q653.87 195.67 654.52 195.67L658.36 195.67" fill="white" fill-opacity="0.7"/>
<path d="M673.72 197.64L662.44 197.64L662.44 195.67L667.12 195.67L667.12 186.41L662.92 186.41L662.92 184.44L669.28 184.44L669.28 195.67L673.72 195.67L673.72 197.64M667.96 182.06Q667.17 182.06 666.71 181.66Q666.26 181.25 666.26 180.55Q666.26 179.83 666.71 179.41Q667.17 178.99 667.96 178.99Q668.75 178.99 669.21 179.41Q669.66 179.83 669.66 180.55Q669.66 181.25 669.21 181.66Q668.75 182.06 667.96 182.06" fill="white" fill-opacity="0.7"/>
<path d="M682.19 197.88Q679.79 197.88 678.35 196.54Q676.91 195.19 676.91 192.84L676.91 189.24Q676.91 186.89 678.35 185.54Q679.79 184.20 682.19 184.20Q684.47 184.20 685.88 185.42Q687.28 186.65 687.35 188.76L685.19 188.76Q685.12 187.49 684.33 186.80Q683.54 186.12 682.19 186.12Q680.78 186.12 679.92 186.92Q679.07 187.73 679.07 189.22L679.07 192.84Q679.07 194.33 679.92 195.14Q680.78 195.96 682.19 195.96Q683.54 195.96 684.33 195.26Q685.12 194.57 685.19 193.32L687.35 193.32Q687.28 195.43 685.88 196.66Q684.47 197.88 682.19 197.88" fill="white" fill-opacity="0.7"/>
<path d="M696.93 197.83L695.87 197.83Q693.66 197.83 692.45 196.84Q691.24 195.84 691.24 194.02L693.40 194.02Q693.40 194.93 694.05 195.44Q694.70 195.96 695.87 195.96L696.93 195.96Q698.13 195.96 698.79 195.43Q699.45 194.90 699.45 193.94Q699.45 192.24 697.89 192.02L694.24 191.50Q692.90 191.30 692.15 190.38Q691.41 189.46 691.41 187.94Q691.41 186.22 692.60 185.23Q693.78 184.25 695.87 184.25L696.93 184.25Q698.85 184.25 700.06 185.20Q701.27 186.14 701.37 187.68L699.18 187.68Q699.14 186.98 698.52 186.53Q697.91 186.07 696.93 186.07L695.87 186.07Q694.77 186.07 694.14 186.58Q693.52 187.08 693.52 187.94Q693.52 189.34 694.79 189.53L698.20 190.01Q701.56 190.49 701.56 193.94Q701.56 195.79 700.35 196.81Q699.14 197.83 696.93 197.83" fill="white" fill-opacity="0.7"/>
<path d="M724.05 197.88Q722.01 197.88 720.81 196.74Q719.61 195.60 719.61 193.75Q719.61 192.53 720.16 191.62Q720.71 190.70 721.70 190.19Q722.68 189.67 723.95 189.67L728.03 189.67L728.03 188.64Q728.03 186.07 725.22 186.07Q723.98 186.07 723.21 186.53Q722.44 186.98 722.39 187.80L720.23 187.80Q720.35 186.24 721.68 185.22Q723.02 184.20 725.22 184.20Q727.62 184.20 728.91 185.35Q730.19 186.50 730.19 188.57L730.19 197.64L728.06 197.64L728.06 195.24L728.01 195.24Q727.82 196.46 726.78 197.17Q725.75 197.88 724.05 197.88M724.58 196.06Q726.16 196.06 727.10 195.29Q728.03 194.52 728.03 193.20L728.03 191.35L724.19 191.35Q723.14 191.35 722.48 191.99Q721.82 192.62 721.82 193.68Q721.82 194.78 722.55 195.42Q723.28 196.06 724.58 196.06" fill="white" fill-opacity="0.7"/>
<path d="M736.77 197.64L734.61 197.64L734.61 184.44L736.77 184.44L736.77 186.96L736.79 186.96Q736.96 185.64 737.87 184.92Q738.78 184.20 740.30 184.20Q742.29 184.20 743.46 185.42Q744.64 186.65 744.64 188.76L744.64 197.64L742.48 197.64L742.48 189.14Q742.48 187.63 741.72 186.83Q740.97 186.02 739.67 186.02Q738.33 186.02 737.55 186.86Q736.77 187.70 736.77 189.24" fill="white" fill-opacity="0.7"/>
<path d="M753.23 197.88Q751.26 197.88 750.08 196.56Q748.89 195.24 748.89 192.98L748.89 189.12Q748.89 186.84 750.06 185.52Q751.24 184.20 753.23 184.20Q754.72 184.20 755.69 184.94Q756.66 185.69 756.86 186.96L756.88 186.96L756.83 183.96L756.83 180.12L758.99 180.12L758.99 197.64L756.83 197.64L756.83 195.12L756.81 195.12Q756.64 196.42 755.68 197.15Q754.72 197.88 753.23 197.88M753.95 196.01Q755.30 196.01 756.06 195.17Q756.83 194.33 756.83 192.84L756.83 189.24Q756.83 187.75 756.06 186.91Q755.30 186.07 753.95 186.07Q752.58 186.07 751.82 186.78Q751.05 187.49 751.05 189.12L751.05 192.96Q751.05 194.57 751.82 195.29Q752.58 196.01 753.95 196.01" fill="white" fill-opacity="0.7"/>
<path d="M782.80 197.83Q780.42 197.83 779.02 196.44Q777.62 195.05 777.62 192.55L777.62 189.53Q777.62 187.01 779.01 185.63Q780.40 184.25 782.80 184.25Q785.20 184.25 786.59 185.63Q787.98 187.01 787.98 189.53L787.98 192.55Q787.98 195.05 786.58 196.44Q785.18 197.83 782.80 197.83M782.80 195.91Q784.22 195.91 785.02 195.12Q785.82 194.33 785.82 192.79L785.82 189.29Q785.82 187.75 785.02 186.96Q784.22 186.17 782.80 186.17Q781.41 186.17 780.59 186.96Q779.78 187.75 779.78 189.29L779.78 192.79Q779.78 194.33 780.59 195.12Q781.41 195.91 782.80 195.91" fill="white" fill-opacity="0.7"/>
<path d="M794.37 201.96L792.21 201.96L792.21 184.44L794.37 184.44L794.37 186.96L794.39 186.96Q794.56 185.66 795.52 184.93Q796.48 184.20 797.97 184.20Q799.96 184.20 801.14 185.51Q802.31 186.82 802.31 189.10L802.31 192.96Q802.31 195.24 801.14 196.56Q799.96 197.88 797.97 197.88Q796.48 197.88 795.52 197.14Q794.56 196.39 794.39 195.12L794.32 195.12L794.37 198.12L794.37 201.96M797.25 196.01Q798.62 196.01 799.38 195.29Q800.15 194.57 800.15 192.96L800.15 189.12Q800.15 187.49 799.38 186.78Q798.62 186.07 797.25 186.07Q795.93 186.07 795.15 186.91Q794.37 187.75 794.37 189.24L794.37 192.84Q794.37 194.33 795.15 195.17Q795.93 196.01 797.25 196.01" fill="white" fill-opacity="0.7"/>
<path d="M816.76 197.64L812.92 197.64Q811.29 197.64 810.30 196.69Q809.32 195.74 809.32 194.16L809.32 186.41L805.53 186.41L805.53 184.44L809.32 184.44L809.32 180.72L811.48 180.72L811.48 184.44L816.88 184.44L816.88 186.41L811.48 186.41L811.48 194.16Q811.48 194.83 811.88 195.25Q812.27 195.67 812.92 195.67L816.76 195.67" fill="white" fill-opacity="0.7"/>
<path d="M832.12 197.64L820.84 197.64L820.84 195.67L825.52 195.67L825.52 186.41L821.32 186.41L821.32 184.44L827.68 184.44L827.68 195.67L832.12 195.67L832.12 197.64M826.36 182.06Q825.57 182.06 825.11 181.66Q824.66 181.25 824.66 180.55Q824.66 179.83 825.11 179.41Q825.57 178.99 826.36 178.99Q827.15 178.99 827.61 179.41Q828.06 179.83 828.06 180.55Q828.06 181.25 827.61 181.66Q827.15 182.06 826.36 182.06" fill="white" fill-opacity="0.7"/>
<path d="M836.66 197.64L834.64 197.64L834.64 184.44L836.51 184.44L836.51 186.19L836.56 186.19Q836.68 185.30 837.27 184.75Q837.86 184.20 838.77 184.20Q839.63 184.20 840.23 184.70Q840.83 185.21 841.10 186.07L841.12 186.07Q841.29 185.21 841.88 184.70Q842.46 184.20 843.38 184.20Q844.65 184.20 845.40 185.15Q846.16 186.10 846.16 187.61L846.16 197.64L844.14 197.64L844.14 187.58Q844.14 186.79 843.76 186.32Q843.38 185.86 842.70 185.86Q842.06 185.86 841.67 186.31Q841.29 186.77 841.29 187.56L841.29 197.64L839.51 197.64L839.51 187.58Q839.51 186.79 839.13 186.32Q838.74 185.86 838.10 185.86Q837.42 185.86 837.04 186.31Q836.66 186.77 836.66 187.56" fill="white" fill-opacity="0.7"/>
<path d="M860.92 197.64L849.64 197.64L849.64 195.67L854.32 195.67L854.32 186.41L850.12 186.41L850.12 184.44L856.48 184.44L856.48 195.67L860.92 195.67L860.92 197.64M855.16 182.06Q854.37 182.06 853.91 181.66Q853.46 181.25 853.46 180.55Q853.46 179.83 853.91 179.41Q854.37 178.99 855.16 178.99Q855.95 178.99 856.41 179.41Q856.86 179.83 856.86 180.55Q856.86 181.25 856.41 181.66Q855.95 182.06 855.16 182.06" fill="white" fill-opacity="0.7"/>
<path d="M874.24 197.64L864.16 197.64L864.16 195.48L871.55 186.41L864.35 186.41L864.35 184.44L873.98 184.44L873.98 186.60L866.44 195.67L874.24 195.67" fill="white" fill-opacity="0.7"/>
<path d="M882.45 197.88Q880.41 197.88 879.21 196.74Q878.01 195.60 878.01 193.75Q878.01 192.53 878.56 191.62Q879.11 190.70 880.10 190.19Q881.08 189.67 882.35 189.67L886.43 189.67L886.43 188.64Q886.43 186.07 883.62 186.07Q882.38 186.07 881.61 186.53Q880.84 186.98 880.79 187.80L878.63 187.80Q878.75 186.24 880.08 185.22Q881.42 184.20 883.62 184.20Q886.02 184.20 887.31 185.35Q888.59 186.50 888.59 188.57L888.59 197.64L886.46 197.64L886.46 195.24L886.41 195.24Q886.22 196.46 885.18 197.17Q884.15 197.88 882.45 197.88M882.98 196.06Q884.56 196.06 885.50 195.29Q886.43 194.52 886.43 193.20L886.43 191.35L882.59 191.35Q881.54 191.35 880.88 191.99Q880.22 192.62 880.22 193.68Q880.22 194.78 880.95 195.42Q881.68 196.06 882.98 196.06" fill="white" fill-opacity="0.7"/>
<path d="M903.16 197.64L899.32 197.64Q897.69 197.64 896.70 196.69Q895.72 195.74 895.72 194.16L895.72 186.41L891.93 186.41L891.93 184.44L895.72 184.44L895.72 180.72L897.88 180.72L897.88 184.44L903.28 184.44L903.28 186.41L897.88 186.41L897.88 194.16Q897.88 194.83 898.28 195.25Q898.67 195.67 899.32 195.67L903.16 195.67" fill="white" fill-opacity="0.7"/>
<path d="M918.52 197.64L907.24 197.64L907.24 195.67L911.92 195.67L911.92 186.41L907.72 186.41L907.72 184.44L914.08 184.44L914.08 195.67L918.52 195.67L918.52 197.64M912.76 182.06Q911.97 182.06 911.51 181.66Q911.06 181.25 911.06 180.55Q911.06 179.83 911.51 179.41Q911.97 178.99 912.76 178.99Q913.55 178.99 914.01 179.41Q914.46 179.83 914.46 180.55Q914.46 181.25 914.01 181.66Q913.55 182.06 912.76 182.06" fill="white" fill-opacity="0.7"/>
<path d="M926.80 197.83Q924.42 197.83 923.02 196.44Q921.62 195.05 921.62 192.55L921.62 189.53Q921.62 187.01 923.01 185.63Q924.40 184.25 926.80 184.25Q929.20 184.25 930.59 185.63Q931.98 187.01 931.98 189.53L931.98 192.55Q931.98 195.05 930.58 196.44Q929.18 197.83 926.80 197.83M926.80 195.91Q928.22 195.91 929.02 195.12Q929.82 194.33 929.82 192.79L929.82 189.29Q929.82 187.75 929.02 186.96Q928.22 186.17 926.80 186.17Q925.41 186.17 924.59 186.96Q923.78 187.75 923.78 189.29L923.78 192.79Q923.78 194.33 924.59 195.12Q925.41 195.91 926.80 195.91" fill="white" fill-opacity="0.7"/>
<path d="M938.37 197.64L936.21 197.64L936.21 184.44L938.37 184.44L938.37 186.96L938.39 186.96Q938.56 185.64 939.47 184.92Q940.38 184.20 941.90 184.20Q943.89 184.20 945.06 185.42Q946.24 186.65 946.24 188.76L946.24 197.64L944.08 197.64L944.08 189.14Q944.08 187.63 943.32 186.83Q942.57 186.02 941.27 186.02Q939.93 186.02 939.15 186.86Q938.37 187.70 938.37 189.24" fill="white" fill-opacity="0.7"/>
<path d="M955.60 197.88Q954.71 197.88 954.17 197.35Q953.63 196.82 953.63 195.98Q953.63 195.10 954.17 194.54Q954.71 193.99 955.60 193.99Q956.49 193.99 957.03 194.54Q957.57 195.10 957.57 195.98Q957.57 196.82 957.03 197.35Q956.49 197.88 955.60 197.88" fill="white" fill-opacity="0.7"/>
<path d="M112.11 136.06L71.31 136.06L71.31 65.98L112.11 65.98L112.11 74.52L80.72 74.52L80.72 95.36L108.75 95.36L108.75 103.61L80.72 103.61L80.72 127.52L112.11 127.52L112.11 136.06M133.62 136.06L123.15 136.06L143.12 100.44L124.21 65.98L135.06 65.98L145.42 85.95Q146.29 87.68 147.20 89.50Q148.11 91.32 148.59 92.28Q149.07 91.32 149.94 89.50Q150.80 87.68 151.66 85.95L162.13 65.98L172.59 65.98L153.68 99.96L173.65 136.06L162.90 136.06L151.38 114.56Q150.51 112.83 149.65 110.96Q148.78 109.08 148.30 107.93Q147.82 109.08 146.96 110.96Q146.10 112.83 145.14 114.46L133.62 136.06M210.80 136.06L201.30 136.06L201.30 74.62L182.29 74.62L182.29 65.98L229.71 65.98L229.71 74.62L210.80 74.62L210.80 136.06M252.75 136.06L243.25 136.06L243.25 65.98L266 65.98Q272.72 65.98 277.62 68.57Q282.51 71.16 285.20 75.82Q287.89 80.48 287.89 86.91Q287.89 93.24 285.20 97.90Q282.51 102.56 277.57 105.15Q272.62 107.74 266 107.74L252.75 107.74L252.75 136.06M252.75 74.43L252.75 99.29L266 99.29Q271.57 99.29 274.83 95.88Q278.10 92.48 278.10 86.91Q278.10 81.24 274.83 77.84Q271.57 74.43 266 74.43L252.75 74.43M321.20 137.02Q311.60 137.02 306.03 131.45Q300.46 125.88 300.46 115.71L300.46 86.24Q300.46 76.16 306.03 70.59Q311.60 65.02 321.20 65.02Q330.80 65.02 336.37 70.54Q341.94 76.06 341.94 86.24L341.94 115.71Q341.94 125.88 336.37 131.45Q330.80 137.02 321.20 137.02M321.20 128.57Q326.58 128.57 329.50 125.50Q332.43 122.43 332.43 116.67L332.43 85.28Q332.43 79.61 329.55 76.54Q326.67 73.47 321.20 73.47Q315.73 73.47 312.85 76.54Q309.97 79.61 309.97 85.28L309.97 116.67Q309.97 122.43 312.90 125.50Q315.82 128.57 321.20 128.57M379.18 137.02Q368.82 137.02 362.67 131.60Q356.53 126.17 356.53 116.67L366.03 116.67Q366.03 122.24 369.58 125.40Q373.14 128.57 379.18 128.57Q384.94 128.57 388.35 125.36Q391.76 122.14 391.76 116.76Q391.76 112.73 389.55 109.71Q387.34 106.68 383.31 105.63L372.94 102.84Q366.13 100.92 362.14 95.88Q358.16 90.84 358.16 83.93Q358.16 78.27 360.70 74Q363.25 69.72 367.86 67.37Q372.46 65.02 378.51 65.02Q384.66 65.02 389.31 67.37Q393.97 69.72 396.56 73.95Q399.15 78.17 399.15 83.74L389.74 83.74Q389.74 79.13 386.62 76.25Q383.50 73.37 378.51 73.37Q373.52 73.37 370.50 76.25Q367.47 79.13 367.47 83.74Q367.47 87.48 369.49 90.03Q371.50 92.57 375.15 93.63L385.81 96.51Q393.01 98.43 397.04 103.85Q401.07 109.28 401.07 116.76Q401.07 122.91 398.38 127.47Q395.70 132.03 390.75 134.52Q385.81 137.02 379.18 137.02M457.71 136.06L416.91 136.06L416.91 65.98L457.71 65.98L457.71 74.52L426.32 74.52L426.32 95.36L454.35 95.36L454.35 103.61L426.32 103.61L426.32 127.52L457.71 127.52" fill="url(#paint2_linear_0_1)"/>
<g id="Group 1">
<rect id="Rectangle 1" x="26" y="168" width="12" height="184" rx="5" fill="url(#paint3_linear_0_1)" fill-opacity="0.9"/>
</g>
<g id="Group 1_2">
<rect id="Rectangle 2" x="26" y="38" width="12" height="119" rx="5" fill="url(#paint4_linear_0_1)" fill-opacity="0.9"/>
</g>
<ellipse id="Ellipse 1" cx="148.5" cy="573" rx="215.5" ry="214" fill="url(#paint5_linear_0_1)" fill-opacity="0.4"/>
<rect id="Rectangle 3" x="1229" y="48" width="300" height="300" rx="25" fill="#FFFBFB" fill-opacity="0.9"/>
<g id="placeholder-logo"><g transform="translate(1229,48) translate(0.0,60.0) scale(1.2000)"><g fill="#666666">
  <path d="m88.05,27.65c-3.15,4 -3.2,51.2 -0.05,54.35c2.75,2.75 71.7,3.15 74.45,0.45c2.85,-2.9 2.3,-53.85 -0.65,-55.9c-1.95,-1.35 -7.15,-1.55 -36.95,-1.55l-34.7,0l-2.1,2.65zm69.45,3.35c0.65,0 1,8.6 1,23.75l0,23.75l-33,0l-33,0l-0.25,-23c-0.15,-12.6 -0.1,-23.45 0.15,-24.1c0.35,-0.85 8.9,-1.05 32.25,-0.75c17.55,0.2 32.3,0.35 32.85,0.35z"/>
  <path d="m99.15,37.3c-6.85,7.35 4.25,17.35 11.4,10.25c1.35,-1.35 2.45,-3.65 2.45,-5.05c0,-6.45 -9.35,-9.95 -13.85,-5.2z"/>
  <path d="m135,42.5c-0.7,0.85 -5.25,5.15 -10.1,9.6l-8.85,8.1l-3.2,-3.2l-3.15,-3.15l-6.35,6.3c-5.55,5.5 -6.35,6.75 -6.35,10.05l0,3.8l28.5,0l28.5,0l0,-8.6l0,-8.55l-8.15,-7.7c-9.35,-8.85 -9.15,-8.7 -10.85,-6.65zm7.25,15.2c0.95,0.9 1.75,2.9 1.75,4.45c6.35,-5.05 4.75,-7.15 4.9,-11.55c0.95,0 0,0 0,0l-6.65,7.1z"/>
  <path d="m53.65,110.75c0.1,4.8 0.45,8.65 0.75,8.5c0.35,-0.15 1.3,-0.25 2.1,-0.25c1.1,0 1.5,-1.2 1.5,-4.75l0,-4.75l3.25,5c4.9,7.5 6.2,6.75 6.55,-3.75c0.25,-8.15 0.15,-8.75 -1.7,-8.75c-1.65,0 -2.05,0.8 -2.3,4.75l-0.3,4.75l-2.8,-4.75c-4.85,-8.25 -7.25,-6.9 -7.05,4z"/>
  <path d="m91,108.9c0,9.65 0.3,10.1 6.1,10.1c5.8,0 7.15,-2.65 1.65,-3.2l-3.25,-0.3l-0.3,-6.75c-0.25,-5.95 -0.55,-6.75 -2.25,-6.75c-1.75,0 -1.95,0.7 -1.95,6.9z"/>
  <path d="m151,102.45c0,0.25 1,2.15 2.25,4.2c1.2,2.1 2.45,5.8 2.75,8.25c0.65,5.9 4,6.95 4,1.25c0.05,-2.1 1.25,-5.85 2.95,-8.9l2.9,-5.25l-2.5,0c-1.8,0 -2.8,0.85 -3.75,3.1l-1.3,3.05l-1.25,-3.05c-1.1,-2.6 -6.05,-4.8 -6.05,-2.65z"/>
  <path d="m191,107.45c0,9.05 3.4,8.85 4.25,-0.2c0.45,-5 0.35,-5.25 -1.9,-5.25c-2.2,0 -2.35,0.4 -2.35,5.45z"/>
  <path d="m180.8,104.75c-1.3,5.35 0.65,13.6 3.45,14.35c2.3,0.6 2.75,0.4 2.75,-1.2c0,-1.05 -0.45,-1.9 -1,-1.9c-0.55,0 -1,-1.6 -1,-3.5c0,-1.95 0.45,-3.5 1,-3.5c0.55,0 1,-0.7 1,-1.5c0,-0.85 -0.45,-1.5 -1,-1.5c-0.55,0 -1,-0.7 -1,-1.5c0,-2.1 -3.65,-1.9 -4.2,0.25z"/>
  <path d="m71.55,106.55c-2.2,2.25 -2.05,9.7 0.3,11.8c4.5,4.1 10.15,0.75 10.15,-6.1c0,-4.85 -2,-7.25 -6,-7.25c-1.55,0 -3.55,0.7 -4.45,1.55zm6.25,5.8c0.25,3.05 0,3.65 -1.6,3.65c-2.3,0 -3.25,-2.65 -2.05,-5.85c1.25,-3.35 3.3,-2.1 3.65,2.2z"/>
  <path d="m105.75,106.1c-2.5,1.45 -2.45,9.95 0.1,12.25c4.3,3.9 10.15,0.35 10.15,-6.2c0,-6 -5.15,-9.05 -10.25,-6.05zm6.05,6.25c0.25,3.05 0,3.65 -1.6,3.65c-2.3,0 -3.25,-2.65 -2.05,-5.85c1.25,-3.35 3.3,-2.1 3.65,2.2z"/>
  <path d="m119.2,106.2c-3.8,3.8 -0.4,12.55 4.4,11.35c1.9,-0.45 2.45,-0.3 2.15,0.65c-0.25,0.7 -1.55,1.2 -2.85,1.1c-4.05,-0.3 -5.35,0.45 -3.85,2.25c0.85,1.05 2.6,1.45 5.35,1.25l4.1,-0.3l0.3,-8.75l0.3,-8.75l-4.35,0c-2.4,0 -4.9,0.55 -5.55,1.2zm6.6,4.45c0.4,2.85 -2.15,4.85 -3.75,2.95c-0.9,-1.1 -0.9,-2 -0.05,-3.6c1.35,-2.5 3.4,-2.15 3.8,0.65z"/>
  <path d="m133.55,106.55c-2.2,2.25 -2.05,9.7 0.3,11.8c4.5,4.1 10.15,0.75 10.15,-6.1c0,-4.85 -2,-7.25 -6,-7.25c-1.55,0 -3.55,0.7 -4.45,1.55zm6.25,5.8c0.25,3.05 0,3.65 -1.6,3.65c-2.3,0 -3.25,-2.65 -2.05,-5.85c1.25,-3.35 3.3,-2.1 3.65,2.2z"/>
  <path d="m167.65,106.85c-3.9,4.3 -0.75,13.15 4.7,13.15c2.4,0 5.65,-2.75 5.65,-4.85c0,-1.4 -2.65,-1.55 -3.5,-0.15c-0.95,1.55 -4.5,1.15 -4.5,-0.5c0,-1.1 1.1,-1.5 4,-1.5c3.15,0 4,-0.35 4,-1.8c0,-5.3 -6.85,-8.25 -10.35,-4.35z"/>
  <path d="m191,117.5c0,2.15 0.4,2.6 2.25,2.3c1.5,-0.2 2.25,-1 2.25,-2.3c0,-1.3 -0.75,-2.1 -2.25,-2.3c-1.85,-0.3 -2.25,0.15 -2.25,2.3z"/>
 </g></g></g>
</g>
<defs>
<linearGradient id="paint0_linear_0_1" x1="0" y1="198" x2="1584" y2="198" gradientUnits="userSpaceOnUse">
<stop stop-color="#3D052C"/>
<stop offset="1"/>
</linearGradient>
<linearGradient id="paint1_linear_0_1" x1="323" y1="-224" x2="323" y2="352" gradientUnits="userSpaceOnUse">
<stop stop-color="#28F6F2" stop-opacity="0.4"/>
<stop offset="1" stop-color="#17908E" stop-opacity="0.7"/>
</linearGradient>
<linearGradient id="paint2_linear_0_1" x1="148.5" y1="38" x2="148.5" y2="140" gradientUnits="userSpaceOnUse">
<stop stop-color="white"/>
<stop offset="1" stop-color="#999999"/>
</linearGradient>
<linearGradient id="paint3_linear_0_1" x1="38" y1="260" x2="26" y2="260" gradientUnits="userSpaceOnUse">
<stop stop-color="#D9D9D9"/>
<stop offset="1" stop-color="#737373"/>
</linearGradient>
<linearGradient id="paint4_linear_0_1" x1="38" y1="97.5" x2="26" y2="97.5" gradientUnits="userSpaceOnUse">
<stop stop-color="#D9D9D9"/>
<stop offset="1" stop-color="#737373"/>
</linearGradient>
<linearGradient id="paint5_linear_0_1" x1="27.5" y1="434.5" x2="148.5" y2="787" gradientUnits="userSpaceOnUse">
<stop stop-color="#2E21BC"/>
<stop offset="1" stop-color="#150F56"/>
</linearGradient>
<clipPath id="clip0_0_1">
<rect width="1584" height="396" fill="white"/>
</clipPath>
</defs>
</svg>
